<?xml version="1.0" encoding="utf-8"?>
<!-- Generator: Adobe Illustrator 16.0.0, SVG Export Plug-In . SVG Version: 6.00 Build 0)  -->
<!DOCTYPE svg PUBLIC "-//W3C//DTD SVG 1.1//EN" "http://www.w3.org/Graphics/SVG/1.1/DTD/svg11.dtd">
<svg version="1.1" id="Layer_1" xmlns="http://www.w3.org/2000/svg" xmlns:xlink="http://www.w3.org/1999/xlink" x="0px" y="0px"
	 width="107.758px" height="121.858px" viewBox="0 0 107.758 121.858" enable-background="new 0 0 107.758 121.858"
	 xml:space="preserve">
<g>
	<path fill="#6FBE44" d="M51.377,61.335c-16.232,6.082-32.776-0.411-44.166-20.911c2.785,0.798,5.626,1.432,8.329,2.436
		c4.756,1.764,8.634,4.906,12.366,8.256c4.268,3.85,8.622,7.654,14.394,9C45.389,60.839,48.613,60.986,51.377,61.335"/>
	<path fill="#6FBE44" d="M1.439,45.438c1.699,0.78,3.646,1.269,5.069,2.403c3.081,2.486,6.049,5.162,8.809,8.02
		c4.471,4.621,9.292,8.577,15.833,9.764c5.467,0.992,10.837,0.211,16.133-1.269c0.297-0.089,0.622-0.106,0.935-0.161
		c0.065,0.215,0.13,0.43,0.195,0.646c-3.597,1.122-7.129,2.61-10.812,3.284c-7.082,1.297-14.195,1.248-21.089-1.293
		C8.056,63.726,2.675,58.042,1.439,48.872c-0.126-0.972-0.301-1.946-0.455-2.914C1.138,45.788,1.289,45.608,1.439,45.438"/>
	<path fill="#6FBE44" d="M53.986,66.998c0.057,5.235-1.175,10.097-3.219,14.724c-2.765,6.26-6.639,11.707-12.163,15.881
		c-7.077,5.338-16.995,5.646-24.446,1.162c2.492-2.621,5.536-4.154,8.878-5.149c4.93-1.468,10.02-2.528,14.788-4.402
		c7.849-3.081,12.044-9.601,14.707-17.26C53.088,70.327,53.506,68.653,53.986,66.998"/>
	<path fill="#6FBE44" d="M52.812,63.185c-0.907,16.078-20.195,29.771-39.845,28.264c2.655-3.63,5.59-6.775,9.5-8.719
		c3.54-1.756,7.179-3.387,10.931-4.586C41.706,75.489,48.808,71.421,52.812,63.185"/>
	<path fill="#6FBE44" d="M93.266,22.824c-2.818,3.492-6.646,4.63-10.525,5.817c-5.34,1.63-10.926,2.419-15.877,5.411
		c-6.244,3.771-9.541,9.475-11.804,16.048c-0.496,1.436-0.915,2.898-1.826,4.252c0.497-2.805,0.789-5.667,1.537-8.402
		c2.164-7.891,6.21-14.683,12.296-20.207c4.215-3.826,9.244-5.968,14.842-6.049C85.77,19.649,89.635,20.589,93.266,22.824"/>
	<path fill="#6FBE44" d="M94.815,30.162c-3.822,5.337-8.488,8.849-14.09,11.085c-4.109,1.646-8.324,3.02-12.428,4.649
		c-5.873,2.347-10.178,6.439-12.998,12.091c-0.118,0.227-0.301,0.414-0.834,0.504c0.61-2.059,1.074-4.168,1.842-6.16
		c3.459-8.93,9.613-15.165,18.617-18.608C81.202,31.329,87.696,30.349,94.815,30.162"/>
	<path fill="#6FBE44" d="M60.014,56.624c3.158-0.996,6.26-2.279,9.492-2.922c7.158-1.432,14.309-1.391,21.328,1.048
		c9.324,3.24,14.467,9.833,15.711,19.554c0.072,0.523-0.041,1.072-0.088,2.258c-2.459-1.283-4.807-2.153-6.705-3.6
		c-2.242-1.699-4.143-3.871-6.125-5.904c-3.65-3.73-7.361-7.343-12.289-9.445c-6.475-2.764-13.02-2.229-19.609-0.646
		c-0.324,0.082-0.637,0.195-0.959,0.248c-0.195,0.028-0.393-0.049-0.594-0.074C60.129,56.966,60.071,56.791,60.014,56.624"/>
	<path fill="#6FBE44" d="M55.563,63.132c3.92,3.135,6.943,6.972,9.012,11.541c1.908,4.235,2.932,8.694,2.695,13.313
		c-0.436,8.325-3.094,16.003-7.742,23.333c-0.684-2.451-1.496-4.87-2.014-7.354c-1.305-6.32,0.09-12.479,1.406-18.616
		C60.59,77.542,60.071,70.104,55.563,63.132"/>
	<path fill="#6FBE44" d="M100.717,80.997c-4.643-0.52-9-1.598-12.752-4.19c-3.809-2.646-7.525-5.483-10.988-8.569
		c-5.693-5.072-12.178-7.805-19.816-7.719c-0.191,0.004-0.387-0.061-0.613-0.098C72.616,54.519,88.995,60.783,100.717,80.997"/>
	<path fill="#6FBE44" d="M40.421,7.479c1.715,3.397,1.232,6.609,0.516,9.756c-1.069,4.695-2.427,9.325-3.455,14.024
		c-1.54,7.036,0.452,13.372,4.46,19.112c1.771,2.537,3.947,4.793,5.845,7.391c-1.065-0.731-2.199-1.362-3.163-2.195
		c-6.996-6.032-12.109-13.325-14.292-22.398c-1.927-8.049-0.557-15.43,5.223-21.633C36.925,10.072,38.657,8.938,40.421,7.479"/>
	<path fill="#6FBE44" d="M67.292,114.623c-1.928-4.464-1.1-8.24-0.229-11.972c1.02-4.365,2.285-8.674,3.203-13.053
		c0.906-4.337,0.188-8.572-1.488-12.662c-1.824-4.435-4.813-8.068-7.959-11.601c-0.154-0.175-0.279-0.382-0.414-0.573
		c0.139-0.143,0.279-0.289,0.428-0.431c2.076,1.837,4.34,3.521,6.197,5.56c4.537,4.977,8.09,10.627,9.887,17.172
		c1.943,7.072,1.947,14.08-2.658,20.271C72.36,109.887,69.848,111.985,67.292,114.623"/>
	<path fill="#6FBE44" d="M47.694,9.902c2.358,5.219,3.309,10.235,2.805,15.413c-0.354,3.668-0.98,7.317-1.736,10.928
		c-1.626,7.796-1.276,15.23,3.361,22.056c0.057,0.077-0.036,0.252-0.097,0.573c-5.634-5.113-9.614-10.946-10.996-18.54
		C39.019,29.324,42.84,19.768,47.694,9.902"/>
	<path fill="#6FBE44" d="M85.559,104.692c-3.574-3.248-4.871-7.309-5.135-11.703c-0.443-7.232-1.602-14.215-6.65-19.837
		c-2.422-2.703-5.166-5.122-7.938-7.845c0.918,0.479,1.73,0.869,2.508,1.32c0.816,0.471,1.607,0.984,2.396,1.508
		c5.834,3.879,11.051,8.406,15,14.261c2.566,3.805,4.285,7.922,4.041,12.604C89.586,98.673,88.192,101.88,85.559,104.692"/>
	<path fill="#6FBE44" d="M31.759,110.208c0.903-4.666,3.906-7.553,7.471-10.207c3.33-2.479,6.573-5.154,9.468-8.121
		c3.841-3.92,5.251-9.106,6.325-14.342c0.272-1.313,0.394-2.658,0.829-3.996c0,2.81,0.373,5.676-0.086,8.406
		c-0.784,4.676-1.76,9.375-3.256,13.862c-1.837,5.503-4.804,10.414-10.255,13.243C39.011,110.725,35.759,111.091,31.759,110.208"/>
	<path fill="#6FBE44" d="M41.864,56.222C33.108,51.56,25.707,45.571,20.5,36.999c-3.773-6.22-3.565-14.098,1.374-19.935
		c2.991,2.203,4.365,5.313,4.939,8.82c0.622,3.846,1.113,7.708,1.646,11.565c0.732,5.248,3.614,9.369,7.101,13.084
		C37.491,52.592,39.75,54.336,41.864,56.222"/>
	<path fill="#6FBE44" d="M75.917,11.276c-1.127,5.527-4.688,8.564-8.67,11.223c-4.822,3.22-9.334,6.841-11.582,12.333
		c-1.707,4.171-2.776,8.593-3.873,12.081c0-1.764-0.277-4.553,0.056-7.268c0.716-5.731,1.895-11.387,4.422-16.65
		c2.793-5.784,6.537-10.581,13.367-11.674C71.635,11,73.733,11.276,75.917,11.276"/>
	<path fill="#6FBE44" d="M64.327,52.738c4.139-3.269,8.98-5.199,13.977-6.78c5.535-1.752,11.166-2.451,16.955-1.484
		c6.295,1.05,10.125,4.902,12.5,10.736c-3.529,1.334-6.936,1.016-10.258-0.285c-2.941-1.15-5.76-2.634-8.703-3.771
		c-7.43-2.891-14.791-2.073-22.068,0.703C65.938,52.149,65.133,52.437,64.327,52.738"/>
	<path fill="#6FBE44" d="M0,66.462c3.919-1.342,7.679-0.721,11.362,0.816c2.967,1.24,5.841,2.732,8.877,3.788
		c6.728,2.338,13.39,1.479,19.947-0.901c0.996-0.375,2.012-0.711,3.028-1.058c0.049-0.012,0.118,0.058,0.582,0.31
		c-3.053,1.516-5.813,3.094-8.724,4.293c-6.459,2.675-13.133,4.442-20.223,3.951C8.158,77.202,2.163,73.507,0,66.462"/>
	<path fill="#6FBE44" d="M85.657,78.896c2.926,2.168,5.877,4.195,9.479,5.045c1.426,0.334,2.914,0.431,4.342,0.789
		c3.684,0.931,5.516,3.776,7.105,6.897c-5.455,2.675-9.654,1.789-13.756-3.056C90.241,85.515,88.034,82.128,85.657,78.896"/>
	<path fill="#6FBE44" d="M53.49,121.858c-5.524-3.378-6.008-8.801-3.927-13.967c1.346-3.337,2.886-6.594,4.715-9.813
		c-0.15,1.178-0.345,2.357-0.447,3.541c-0.264,3.153,0.338,6.146,1.573,9.047C57.131,114.732,56.176,118.399,53.49,121.858"/>
	<path fill="#6FBE44" d="M0.992,30.076c6.792-3.268,11.345-0.297,14.674,4.236c2.094,2.861,4.216,5.706,6.638,8.983
		c-0.634-0.236-0.845-0.257-0.959-0.371c-3.325-3.438-7.479-5.031-12.126-5.743c-2.821-0.431-5.142-1.817-6.63-4.391
		C2.089,31.935,1.577,31.072,0.992,30.076"/>
	<path fill="#6FBE44" d="M85.672,42.202c4.902-1.854,8.447-4.963,11.635-8.886c2.328-2.87,5.99-3.037,9.543-2.569
		c-0.383,5.398-3.08,8.536-8.576,10c-0.906,0.239-1.838,0.418-2.77,0.516C92.233,41.597,88.952,41.89,85.672,42.202"/>
	<path fill="#6FBE44" d="M54.092,0c3.674,1.446,5.813,6.228,4.944,10.707c-0.334,1.764-1.006,3.483-1.711,5.138
		c-1.111,2.573-2.371,5.077-3.944,7.516c0.15-1.064,0.357-2.122,0.418-3.194c0.179-3.139-0.26-6.146-1.556-9.077
		C50.466,7.061,51.446,3.356,54.092,0"/>
	<path fill="#6FBE44" d="M0.703,90.97c1.236-7.883,4.76-9.248,10.939-10.391c3.231-0.594,6.553-0.691,9.919-0.691
		c-1.448,0.676-3.053,1.139-4.305,2.069c-1.984,1.476-3.935,3.081-5.517,4.955C8.797,90.4,5.28,91.847,0.703,90.97"/>
</g>
</svg>
