<?xml version="1.0" encoding="utf-8"?>
<!-- Generator: Adobe Illustrator 16.0.0, SVG Export Plug-In . SVG Version: 6.00 Build 0)  -->
<!DOCTYPE svg PUBLIC "-//W3C//DTD SVG 1.1//EN" "http://www.w3.org/Graphics/SVG/1.1/DTD/svg11.dtd">
<svg version="1.1" id="Layer_1" xmlns="http://www.w3.org/2000/svg" xmlns:xlink="http://www.w3.org/1999/xlink" x="0px" y="0px"
	 width="287.469px" height="60.226px" viewBox="0 0 287.469 60.226" enable-background="new 0 0 287.469 60.226"
	 xml:space="preserve">
<g>
	<path fill="#FFFFFF" d="M73.27,5.512c-1.366-1.733-2.389-2.875-3.071-3.425c-0.683-0.55-1.26-0.826-1.731-0.826h-2.205V1.103
		c0-0.052-0.014-0.091-0.039-0.118c-0.028-0.025-0.04-0.091-0.04-0.197c0-0.104-0.013-0.17-0.038-0.196
		c-0.028-0.027-0.04-0.066-0.04-0.118V0.316h3.227h5.591h1.81h1.731l34.01,44.716l1.575,2.047l-0.158-35.584
		c-0.106-2.099-0.314-3.805-0.63-5.117c-0.314-1.312-0.748-2.349-1.299-3.11c-0.551-0.76-1.194-1.285-1.928-1.575
		c-0.736-0.288-1.523-0.433-2.362-0.433h-1.024l-0.314-0.944h7.479h2.284h7.399c0,0.052-0.039,0.197-0.117,0.433
		c-0.08,0.236-0.146,0.407-0.198,0.512h-1.023c-0.84,0-1.614,0.131-2.323,0.395c-0.709,0.262-1.326,0.761-1.85,1.495
		c-0.525,0.736-0.958,1.732-1.299,2.991c-0.342,1.26-0.564,2.861-0.668,4.803l-0.474,48.417h-1.495l-7.558-9.999L76.733,10.157
		l0.157,33.694c0,2.992,0.13,5.433,0.394,7.321c0.261,1.89,0.643,3.374,1.142,4.449c0.497,1.076,1.074,1.81,1.731,2.204
		c0.655,0.394,1.377,0.59,2.165,0.59h1.81l0.159,0.473v0.394c0,0.053,0.025,0.079,0.079,0.079h-7.4h-2.205h-7.399
		c0-0.053,0.012-0.184,0.039-0.395c0.026-0.209,0.065-0.366,0.118-0.473h1.81c0.788,0,1.508-0.208,2.165-0.629
		c0.656-0.419,1.233-1.221,1.733-2.402c0.498-1.18,0.877-2.781,1.141-4.802c0.262-2.019,0.394-4.657,0.394-7.912l0.079-35.032
		L73.19,5.59L73.27,5.512z"/>
	<path fill="#FFFFFF" d="M118.546,20.863c0-0.105-0.028-0.262-0.079-0.473c-0.053-0.209-0.079-0.34-0.079-0.394h10.391v2.755v23.774
		c0,2.73,0.77,4.96,2.313,6.692c1.542,1.731,3.541,2.598,6,2.598c1.203,0,2.392-0.183,3.567-0.55
		c1.176-0.367,2.271-0.879,3.293-1.537c1.02-0.654,1.949-1.442,2.785-2.362c0.836-0.917,1.516-1.928,2.038-3.03V22.832
		c0-0.735-0.265-1.22-0.787-1.457c-0.525-0.236-1.208-0.354-2.048-0.354h-0.945l-0.156-0.474c0-0.104-0.013-0.169-0.04-0.196
		c-0.026-0.025-0.039-0.065-0.039-0.117v-0.158h10.313v2.756v29.679c0,2.572,0.367,4.226,1.102,4.959
		c0.734,0.736,1.678,1.051,2.835,0.945l0.943-0.078l0.157,0.471v0.316c0,0.053,0.028,0.106,0.08,0.158l-10.313,0.944h-1.102v-7.243
		v-2.991c-0.684,1.522-1.536,2.913-2.56,4.172c-1.023,1.26-2.178,2.336-3.462,3.227c-1.288,0.894-2.666,1.588-4.135,2.087
		c-1.471,0.499-2.965,0.748-4.486,0.748c-1.681,0-3.243-0.342-4.685-1.024c-1.444-0.681-2.677-1.626-3.7-2.834
		c-1.023-1.206-1.825-2.637-2.401-4.29c-0.579-1.653-0.867-3.476-0.867-5.472V22.832c0-0.735-0.263-1.22-0.787-1.457
		c-0.526-0.236-1.208-0.354-2.046-0.354h-1.024L118.546,20.863z"/>
	<path fill="#FFFFFF" d="M204.123,59.438h-20.94h-7.165h-7.399h-6.378c0-0.052,0.04-0.196,0.12-0.433
		c0.077-0.237,0.145-0.405,0.196-0.512h1.021c0.735,0,1.405-0.104,2.009-0.315c0.602-0.209,1.127-0.603,1.574-1.181
		c0.446-0.577,0.799-1.377,1.063-2.4c0.262-1.024,0.395-2.348,0.395-3.976V9.212c0-1.627-0.133-2.953-0.395-3.976
		c-0.264-1.023-0.616-1.823-1.063-2.401c-0.447-0.577-0.973-0.97-1.574-1.18c-0.604-0.21-1.273-0.316-2.009-0.316h-1.021
		l-0.316-0.944h6.378h7.399h6.378c-0.052,0.052-0.08,0.105-0.08,0.157c0,0.053-0.013,0.093-0.039,0.118
		c-0.025,0.027-0.038,0.093-0.038,0.197c0,0.106-0.016,0.17-0.04,0.197c-0.027,0.027-0.04,0.067-0.04,0.118v0.157h-1.023
		c-0.735,0-1.417,0.106-2.046,0.316c-0.63,0.21-1.171,0.603-1.614,1.18c-0.445,0.579-0.802,1.378-1.063,2.401
		c-0.262,1.023-0.394,2.349-0.394,3.976v41.409v2.52c0,0.736,0.064,1.405,0.196,2.007c0.132,0.604,0.422,1.13,0.867,1.575
		c0.446,0.447,1.089,0.801,1.929,1.063c0.84,0.263,1.94,0.393,3.306,0.393h1.181c4.093,0,7.491-0.209,10.194-0.631
		c2.704-0.417,4.894-1.008,6.575-1.77c1.679-0.76,2.94-1.653,3.779-2.676c0.837-1.024,1.415-2.166,1.732-3.425l0.313-1.023
		c0-0.052,0.026-0.08,0.08-0.08c0.156,0,0.288-0.025,0.394-0.079c0.156,0,0.273-0.012,0.354-0.039
		c0.079-0.026,0.145-0.039,0.196-0.039c-0.474,1.627-0.919,3.254-1.337,4.881c-0.422,1.626-0.841,3.254-1.261,4.88L204.123,59.438z"
		/>
	<path fill="#FFFFFF" d="M215.819,11.022c-1.208,0-2.192-0.379-2.952-1.141c-0.763-0.76-1.144-1.746-1.144-2.953
		c0-1.206,0.381-2.176,1.144-2.912c0.76-0.735,1.744-1.103,2.952-1.103c1.206,0,2.177,0.368,2.912,1.103
		c0.735,0.736,1.102,1.706,1.102,2.912c0,1.207-0.366,2.192-1.102,2.953C217.996,10.643,217.025,11.022,215.819,11.022
		 M207.71,22.201l-0.157-0.472c-0.054-0.157-0.079-0.314-0.079-0.471l10.311-1.103h1.185v7.621v28.912
		c0,0.733,0.302,1.218,0.904,1.454s1.402,0.353,2.401,0.353h1.023c0,0.116,0.025,0.288,0.078,0.516
		c0.052,0.229,0.079,0.373,0.079,0.43h-15.352v-0.078c0-0.053,0.013-0.105,0.04-0.159c0.024-0.051,0.037-0.131,0.037-0.235
		l0.16-0.552h0.943c0.997,0,1.812-0.117,2.439-0.353c0.633-0.236,0.947-0.72,0.947-1.454V28.25c0-1.361-0.096-2.475-0.277-3.338
		c-0.184-0.864-0.461-1.519-0.827-1.964s-0.786-0.734-1.258-0.866c-0.474-0.128-0.999-0.167-1.574-0.117l-1.024,0.157V22.201z"/>
	<path fill="#FFFFFF" d="M226.056,58.967l0.158-0.474h1.023c1.154,0,2.098-0.119,2.835-0.354c0.735-0.237,1.101-0.721,1.101-1.457
		V23.381h-7.478v-0.708l7.478-2.598c0-2.938,0.395-5.641,1.182-8.109c0.787-2.465,1.94-4.578,3.465-6.337
		c1.521-1.757,3.396-3.135,5.628-4.133C243.678,0.5,246.236,0,249.121,0c1.734,0,3.31,0.146,4.727,0.434
		c1.415,0.289,2.647,0.697,3.699,1.221c1.049,0.525,1.861,1.154,2.439,1.889c0.577,0.735,0.867,1.522,0.867,2.361
		c0,0.999-0.501,1.497-1.495,1.497c-1.104,0-2.125-0.287-3.071-0.866c-0.944-0.577-1.889-1.192-2.833-1.85
		c-0.947-0.656-1.943-1.271-2.992-1.85c-1.051-0.577-2.232-0.867-3.543-0.867c-1.522,0-2.872,0.447-4.056,1.339
		c-1.179,0.893-2.162,2.139-2.95,3.74c-0.787,1.601-1.393,3.502-1.812,5.707c-0.42,2.205-0.63,4.646-0.63,7.321h13.698v3.306
		h-13.698v33.302c0,0.736,0.354,1.22,1.064,1.457c0.707,0.235,1.637,0.354,2.792,0.354h1.024v0.158c0,0.053,0.012,0.106,0.04,0.157
		c0.024,0.053,0.039,0.106,0.039,0.159c0,0.104,0.013,0.184,0.038,0.235c0.027,0.053,0.039,0.105,0.039,0.159
		c0,0.052,0.028,0.078,0.08,0.078h-16.611C225.978,59.282,226.004,59.124,226.056,58.967"/>
	<path fill="#FFFFFF" d="M280.146,31.727c-0.892-3.886-2.27-6.708-4.132-8.464s-3.975-2.637-6.336-2.637
		c-3.257,0-6.052,1.027-8.386,3.076c-2.335,2.049-4.001,4.804-4.998,8.26L280.146,31.727z M255.9,33.38
		c-0.316,1.681-0.474,3.438-0.474,5.274c0,2.52,0.354,4.856,1.064,7.007c0.707,2.152,1.691,3.989,2.952,5.51
		c1.259,1.524,2.755,2.716,4.486,3.583c1.732,0.867,3.648,1.299,5.748,1.299c1.993,0,3.881-0.196,5.668-0.591
		c1.784-0.394,3.385-0.93,4.8-1.613c1.421-0.682,2.626-1.495,3.623-2.441c0.997-0.944,1.68-1.993,2.048-3.148l0.787,0.235
		c-0.577,1.732-1.457,3.307-2.639,4.724c-1.181,1.417-2.585,2.651-4.213,3.7c-1.627,1.05-3.435,1.863-5.43,2.441
		c-1.996,0.577-4.042,0.865-6.139,0.865c-2.836,0-5.435-0.473-7.797-1.418c-2.362-0.944-4.406-2.255-6.141-3.936
		c-1.731-1.678-3.069-3.686-4.013-6.023c-0.947-2.334-1.419-4.892-1.419-7.675c0-3.201,0.523-6.141,1.575-8.816
		c1.049-2.677,2.519-4.987,4.41-6.929c1.888-1.941,4.131-3.451,6.729-4.527c2.598-1.075,5.446-1.613,8.543-1.613
		c2.205,0,4.263,0.275,6.179,0.827s3.635,1.392,5.156,2.519c1.522,1.129,2.808,2.584,3.859,4.369
		c1.049,1.786,1.784,3.911,2.203,6.377h-6.926H255.98H255.9z"/>
	<path fill="#FFFFFF" d="M60.909,57.404h3.377h0.407c0.237,0,0.433-0.057,0.584-0.171c0.153-0.114,0.229-0.264,0.229-0.45V56.15
		c0-0.414-0.034-0.793-0.102-1.14c-0.068-0.345-0.188-0.643-0.362-0.892c-0.174-0.249-0.407-0.442-0.705-0.582
		c-0.295-0.141-0.669-0.21-1.118-0.21c-0.338,0-0.649,0.073-0.933,0.215c-0.283,0.144-0.527,0.344-0.73,0.603
		c-0.203,0.257-0.362,0.563-0.477,0.917c-0.114,0.355-0.17,0.747-0.17,1.178V57.404z M57.606,57.404h3.125v-1.215
		c0-0.388-0.053-0.746-0.159-1.07c-0.106-0.324-0.254-0.605-0.445-0.841c-0.19-0.236-0.414-0.42-0.672-0.551
		s-0.544-0.196-0.857-0.196c-0.321,0-0.616,0.046-0.884,0.139c-0.266,0.092-0.498,0.257-0.692,0.494s-0.347,0.555-0.458,0.955
		c-0.11,0.401-0.165,0.905-0.165,1.513l-0.013,0.772H57.606z M60.781,54.801c0.051-0.416,0.148-0.795,0.292-1.137
		c0.145-0.344,0.32-0.635,0.527-0.877c0.208-0.241,0.449-0.429,0.724-0.564c0.275-0.136,0.57-0.204,0.882-0.204
		c0.491,0,0.898,0.095,1.219,0.285c0.323,0.19,0.576,0.456,0.762,0.799c0.187,0.342,0.318,0.75,0.394,1.223
		c0.077,0.474,0.114,0.992,0.114,1.559v1.521v2.208h-0.012c-0.008,0-0.017-0.001-0.025-0.006c-0.008-0.004-0.021-0.006-0.038-0.006
		l-0.077-0.026v-0.165c0-0.119-0.017-0.227-0.051-0.324c-0.034-0.098-0.096-0.182-0.19-0.254c-0.093-0.072-0.222-0.128-0.387-0.172
		c-0.165-0.042-0.379-0.063-0.642-0.063h-6.681c-0.263,0-0.476,0.021-0.641,0.063c-0.166,0.043-0.295,0.1-0.389,0.172
		c-0.093,0.072-0.156,0.156-0.19,0.254c-0.033,0.097-0.05,0.206-0.05,0.324v0.165l-0.076,0.026c-0.018,0-0.028,0.002-0.032,0.006
		c-0.004,0.005-0.011,0.006-0.021,0.006h-0.024v-2.208v-1.192c0-0.768,0.057-1.401,0.171-1.901c0.114-0.498,0.274-0.894,0.477-1.184
		c0.203-0.292,0.444-0.496,0.725-0.615c0.28-0.118,0.584-0.177,0.914-0.177c0.567,0,1.057,0.225,1.466,0.674
		c0.411,0.448,0.697,1.048,0.857,1.803V54.801z"/>
	<path fill="#FFFFFF" d="M61.963,45.548l-4.979,1.625l4.979,1.651V45.548z M63.03,49.18c0.507,0.152,0.924,0.25,1.251,0.292
		c0.325,0.043,0.583,0.041,0.768-0.005c0.187-0.048,0.315-0.13,0.387-0.249c0.073-0.119,0.109-0.263,0.109-0.432v-0.268h0.025
		c0.009,0,0.017-0.001,0.026-0.005c0.008-0.004,0.017-0.006,0.025-0.006c0.017,0,0.029-0.002,0.038-0.006s0.018-0.006,0.025-0.006
		h0.013v1.561v0.306v1.232h-0.013c-0.025,0-0.046-0.004-0.063-0.013H65.57c-0.008,0-0.017-0.003-0.025-0.012v-0.292
		c0-0.134-0.036-0.271-0.109-0.405c-0.071-0.137-0.2-0.28-0.387-0.432c-0.186-0.152-0.445-0.309-0.775-0.47
		c-0.33-0.162-0.753-0.334-1.27-0.522l-6.338-2.159l-0.127,0.039c-0.016-0.178-0.082-0.348-0.197-0.508
		c-0.113-0.161-0.25-0.28-0.413-0.356v-0.126l0.609-0.204l7.253-2.413c0.355-0.127,0.647-0.246,0.876-0.355
		c0.228-0.111,0.408-0.212,0.54-0.305c0.131-0.093,0.223-0.18,0.273-0.261c0.05-0.08,0.075-0.158,0.075-0.235v-0.316h0.025
		c0.025,0,0.042-0.005,0.052-0.013h0.063c0.009,0,0.013-0.005,0.013-0.013v0.863v1.246v1.294h-0.013
		c-0.008,0-0.017-0.001-0.025-0.005c-0.008-0.005-0.021-0.008-0.037-0.008l-0.078-0.024v-0.28c0-0.135-0.031-0.249-0.094-0.342
		c-0.063-0.093-0.183-0.153-0.357-0.178c-0.173-0.026-0.412-0.011-0.716,0.044c-0.305,0.055-0.699,0.163-1.182,0.323v-0.012
		l-0.978,0.316v3.455L63.03,49.18z"/>
	<path fill="#FFFFFF" d="M57.606,39.534h6.681h0.408c0.236,0,0.431-0.047,0.583-0.14c0.152-0.094,0.228-0.318,0.228-0.674
		c0-0.762-0.099-1.46-0.298-2.094c-0.199-0.636-0.493-1.183-0.883-1.64c-0.39-0.457-0.865-0.814-1.429-1.073
		c-0.563-0.259-1.213-0.387-1.95-0.387c-0.668,0-1.282,0.112-1.841,0.336c-0.559,0.225-1.04,0.558-1.441,0.997
		c-0.402,0.44-0.715,0.98-0.939,1.62c-0.226,0.639-0.337,1.373-0.337,2.203v0.852H57.606z M57.606,40.728
		c-0.262,0-0.476,0.021-0.641,0.063c-0.166,0.043-0.294,0.101-0.387,0.171c-0.095,0.072-0.156,0.157-0.19,0.254
		c-0.034,0.098-0.051,0.206-0.051,0.324v0.165L56.26,41.73c-0.017,0-0.027,0.002-0.032,0.008c-0.004,0.003-0.011,0.005-0.02,0.005
		h-0.024v-1.015v-1.194v-1.676c0-0.907,0.117-1.711,0.354-2.414c0.237-0.702,0.566-1.293,0.984-1.771
		c0.419-0.479,0.921-0.841,1.505-1.087c0.584-0.245,1.224-0.368,1.917-0.368c0.763,0,1.44,0.152,2.033,0.458
		c0.592,0.304,1.092,0.729,1.498,1.276c0.406,0.545,0.714,1.199,0.921,1.961c0.208,0.762,0.312,1.598,0.312,2.503v1.118v1.194v1.015
		h-0.013c-0.008,0-0.017-0.001-0.025-0.005c-0.008-0.005-0.021-0.008-0.037-0.008l-0.077-0.025v-0.165
		c0-0.119-0.017-0.227-0.051-0.324c-0.034-0.097-0.097-0.182-0.189-0.254c-0.094-0.071-0.222-0.128-0.387-0.171
		c-0.166-0.042-0.38-0.063-0.643-0.063H57.606z"/>
	<path fill="#FFFFFF" d="M61.963,27.118l-4.979,1.625l4.979,1.651V27.118z M63.03,30.75c0.507,0.153,0.924,0.25,1.251,0.292
		c0.325,0.042,0.583,0.04,0.768-0.006c0.187-0.047,0.315-0.129,0.387-0.248c0.073-0.119,0.109-0.262,0.109-0.432v-0.267h0.025
		c0.009,0,0.017-0.001,0.026-0.006c0.008-0.003,0.017-0.007,0.025-0.007c0.017,0,0.029-0.002,0.038-0.005
		c0.008-0.004,0.018-0.006,0.025-0.006h0.013v1.562v0.304v1.233h-0.013c-0.025,0-0.046-0.004-0.063-0.013H65.57
		c-0.008,0-0.017-0.004-0.025-0.013v-0.292c0-0.134-0.036-0.271-0.109-0.406c-0.071-0.136-0.2-0.279-0.387-0.431
		c-0.186-0.153-0.445-0.31-0.775-0.471c-0.33-0.161-0.753-0.333-1.27-0.521l-6.338-2.159l-0.127,0.038
		c-0.016-0.178-0.082-0.347-0.197-0.506c-0.113-0.162-0.25-0.281-0.413-0.356v-0.126l0.609-0.204l7.253-2.413
		c0.355-0.126,0.647-0.245,0.876-0.356c0.228-0.11,0.408-0.212,0.54-0.305c0.131-0.092,0.223-0.18,0.273-0.26
		c0.05-0.08,0.075-0.159,0.075-0.235v-0.317h0.025c0.025,0,0.042-0.004,0.052-0.013h0.063c0.009,0,0.013-0.005,0.013-0.013v0.864
		v1.244v1.295h-0.013c-0.008,0-0.017-0.002-0.025-0.006c-0.008-0.003-0.021-0.007-0.037-0.007l-0.078-0.024v-0.28
		c0-0.135-0.031-0.249-0.094-0.342c-0.063-0.094-0.183-0.153-0.357-0.178c-0.173-0.025-0.412-0.01-0.716,0.044
		c-0.305,0.056-0.699,0.164-1.182,0.324v-0.012l-0.978,0.317v3.455L63.03,30.75z"/>
	<path fill="#FFFFFF" d="M57.606,21.104h3.277V19.44c0-0.288-0.046-0.553-0.139-0.794c-0.094-0.24-0.233-0.448-0.421-0.623
		c-0.185-0.172-0.418-0.309-0.697-0.405c-0.28-0.098-0.61-0.147-0.992-0.147c-0.321,0-0.617,0.058-0.889,0.172
		c-0.271,0.114-0.502,0.276-0.698,0.482c-0.194,0.208-0.347,0.453-0.457,0.737c-0.11,0.283-0.165,0.595-0.165,0.933v1.31H57.606z
		 M65.709,14.232c0,0.567-0.007,1.016-0.025,1.347c-0.017,0.33-0.055,0.594-0.114,0.793c-0.058,0.2-0.15,0.359-0.273,0.483
		c-0.123,0.123-0.29,0.251-0.501,0.387c-0.44,0.289-0.855,0.554-1.244,0.8c-0.39,0.246-0.741,0.469-1.055,0.667
		c-0.313,0.199-0.583,0.367-0.807,0.502c-0.223,0.135-0.396,0.233-0.514,0.292v1.601h3.111c0.262,0,0.477-0.022,0.643-0.064
		c0.165-0.042,0.293-0.1,0.387-0.171c0.092-0.072,0.156-0.157,0.19-0.254c0.034-0.098,0.05-0.205,0.05-0.323v-0.166l0.078-0.025
		h0.063c0.009,0,0.013-0.005,0.013-0.013v3.226h-0.013c-0.008,0-0.017-0.002-0.025-0.006c-0.008-0.004-0.021-0.006-0.037-0.006
		l-0.078-0.026v-0.166c0-0.118-0.017-0.226-0.05-0.323c-0.034-0.098-0.098-0.182-0.19-0.254c-0.094-0.072-0.222-0.129-0.387-0.172
		c-0.166-0.042-0.38-0.063-0.643-0.063h-6.681c-0.263,0-0.476,0.021-0.641,0.063c-0.165,0.043-0.293,0.101-0.387,0.172
		c-0.094,0.072-0.156,0.156-0.191,0.254c-0.033,0.097-0.05,0.206-0.05,0.323v0.166l-0.076,0.026c-0.017,0-0.027,0.002-0.031,0.006
		c-0.004,0.004-0.011,0.006-0.02,0.006h-0.024v-2.209V19.44c0-0.482,0.064-0.923,0.197-1.321c0.13-0.397,0.317-0.742,0.559-1.036
		c0.241-0.292,0.527-0.518,0.857-0.68c0.331-0.159,0.691-0.24,1.08-0.24c0.609,0,1.096,0.193,1.46,0.578
		c0.365,0.386,0.609,0.904,0.737,1.556c0.135-0.085,0.322-0.206,0.559-0.362c0.237-0.157,0.515-0.342,0.832-0.553
		c0.318-0.211,0.673-0.445,1.067-0.698c0.393-0.255,0.815-0.529,1.263-0.826c0.178-0.119,0.319-0.22,0.425-0.305
		s0.185-0.183,0.236-0.292c0.05-0.111,0.082-0.243,0.095-0.401c0.012-0.156,0.019-0.365,0.019-0.628H65.709z"/>
	<path fill="#FFFFFF" d="M65.64,13.775c-0.038-0.013-0.066-0.022-0.083-0.031v-0.165c0-0.236-0.075-0.432-0.228-0.585
		c-0.152-0.152-0.465-0.228-0.939-0.228h-6.884c-0.474,0-0.788,0.076-0.941,0.228c-0.151,0.153-0.228,0.349-0.228,0.585v0.165
		l-0.151,0.051v-3.251c0.007,0.009,0.016,0.013,0.024,0.013c0.009,0,0.015,0.002,0.02,0.006c0.004,0.005,0.015,0.006,0.032,0.006
		c0.017,0,0.027,0.002,0.031,0.006c0.005,0.005,0.011,0.007,0.02,0.007h0.025v0.165c0,0.247,0.077,0.445,0.228,0.597
		c0.153,0.153,0.467,0.229,0.941,0.229h6.884c0.474,0,0.787-0.076,0.939-0.229c0.153-0.152,0.228-0.35,0.228-0.597v-0.165h0.025
		c0.009,0,0.017-0.002,0.025-0.007c0.008-0.004,0.017-0.006,0.027-0.006c0.016,0,0.029-0.001,0.037-0.006
		c0.009-0.003,0.017-0.006,0.025-0.006c0.009,0,0.013-0.004,0.013-0.013v3.251C65.702,13.795,65.678,13.788,65.64,13.775"/>
	<path fill="#FFFFFF" d="M56.857,8.321c0.11,0.067,0.165,0.165,0.165,0.292c0,0.143-0.043,0.258-0.133,0.343
		c-0.088,0.084-0.201,0.126-0.336,0.126c-0.145,0-0.261-0.042-0.35-0.126c-0.088-0.085-0.133-0.2-0.133-0.343
		c0-0.179,0.055-0.322,0.166-0.432c0.109-0.11,0.25-0.166,0.419-0.166c0.339,0,0.684,0.083,1.035,0.248
		c0.353,0.165,0.638,0.375,0.858,0.628l-0.127,0.14c-0.178-0.211-0.411-0.382-0.699-0.514c-0.287-0.131-0.576-0.2-0.863-0.21V8.321z
		"/>
	<path fill="#FFFFFF" d="M56.399,3.138v0.039V3.151V3.138z M56.692,1.69c0.119-0.169,0.177-0.311,0.177-0.426
		c0-0.114-0.033-0.18-0.101-0.196c-0.042-0.008-0.081-0.017-0.115-0.025c-0.034-0.008-0.063-0.016-0.089-0.026
		c-0.033-0.008-0.058-0.013-0.075-0.013V0.993c0-0.009-0.001-0.015-0.007-0.02c-0.004-0.004-0.006-0.011-0.006-0.019
		s-0.002-0.012-0.006-0.012c-0.004,0-0.006-0.004-0.006-0.013l-0.013-0.013h1.117h0.992l-0.013,0.013
		c0,0.009-0.004,0.017-0.013,0.025v0.039c0,0.007-0.004,0.011-0.013,0.011c-0.016,0-0.038,0.005-0.063,0.013
		c-0.017,0.01-0.036,0.018-0.058,0.026c-0.021,0.008-0.048,0.017-0.082,0.025c-0.179,0.051-0.369,0.146-0.573,0.287
		c-0.202,0.139-0.397,0.302-0.583,0.488c-0.187,0.186-0.347,0.393-0.483,0.622c-0.134,0.229-0.228,0.457-0.279,0.686l0.026-0.127
		c-0.068,0.271-0.102,0.534-0.102,0.787c0,0.467,0.166,0.845,0.495,1.138c0.33,0.292,0.757,0.438,1.283,0.438
		c0.38,0,0.774-0.211,1.18-0.635c0.407-0.424,0.759-1.034,1.055-1.83C60.65,2.102,61.071,1.478,61.6,1.05
		c0.531-0.428,1.083-0.642,1.658-0.642c0.381,0,0.73,0.072,1.048,0.215c0.317,0.144,0.59,0.343,0.82,0.597
		c0.228,0.254,0.406,0.556,0.533,0.909c0.126,0.351,0.19,0.733,0.19,1.148c0,0.39-0.064,0.77-0.19,1.143
		c-0.127,0.373-0.305,0.716-0.533,1.028c-0.187,0.246-0.297,0.456-0.331,0.629c-0.033,0.173-0.008,0.269,0.077,0.286
		c0.049,0.018,0.097,0.027,0.139,0.032c0.042,0.004,0.081,0.01,0.115,0.019c0.033,0.009,0.062,0.013,0.087,0.013
		c0.009,0.009,0.018,0.023,0.025,0.044c0.01,0.021,0.017,0.04,0.027,0.057h-1.411h-0.99l0.025-0.05c0-0.009,0.002-0.014,0.006-0.014
		c0.003,0,0.006-0.005,0.006-0.013V6.441c0.178-0.051,0.372-0.129,0.585-0.235c0.211-0.106,0.418-0.231,0.622-0.375
		c0.202-0.145,0.39-0.301,0.564-0.47c0.174-0.169,0.315-0.347,0.426-0.534c0.126-0.237,0.226-0.485,0.299-0.742
		c0.071-0.259,0.106-0.524,0.106-0.795c0-0.279-0.046-0.535-0.14-0.767c-0.092-0.234-0.224-0.437-0.393-0.61
		c-0.169-0.173-0.371-0.307-0.604-0.401c-0.231-0.093-0.488-0.139-0.768-0.139c-0.347,0-0.703,0.194-1.067,0.584
		c-0.364,0.389-0.686,0.953-0.965,1.688c-0.168,0.432-0.368,0.816-0.597,1.15c-0.228,0.334-0.474,0.612-0.736,0.838
		c-0.262,0.224-0.538,0.396-0.825,0.514c-0.287,0.118-0.58,0.178-0.876,0.178c-0.364,0-0.697-0.063-0.998-0.186
		c-0.3-0.123-0.561-0.296-0.78-0.52c-0.221-0.224-0.392-0.49-0.515-0.794c-0.123-0.305-0.185-0.64-0.185-1.003
		c0-0.397,0.053-0.778,0.16-1.143c0.106-0.364,0.255-0.686,0.45-0.965L56.692,1.69z"/>
	<g>
		<path fill="#FFFFFF" d="M25.297,30.215C17.305,33.209,9.159,30.013,3.55,19.92c1.372,0.392,2.771,0.705,4.102,1.199
			c2.341,0.869,4.251,2.416,6.088,4.064c2.102,1.896,4.245,3.77,7.087,4.432C22.348,29.971,23.937,30.043,25.297,30.215"/>
		<path fill="#FFFFFF" d="M0.709,22.387c0.836,0.384,1.795,0.625,2.496,1.184c1.517,1.224,2.979,2.541,4.337,3.948
			c2.202,2.276,4.575,4.224,7.796,4.808c2.692,0.488,5.336,0.104,7.944-0.625c0.146-0.044,0.306-0.052,0.459-0.079
			c0.032,0.106,0.064,0.212,0.097,0.318c-1.771,0.552-3.51,1.285-5.324,1.617c-3.487,0.639-6.989,0.615-10.384-0.636
			c-4.163-1.529-6.813-4.327-7.421-8.842c-0.063-0.479-0.148-0.959-0.224-1.436C0.561,22.56,0.635,22.472,0.709,22.387"/>
		<path fill="#FFFFFF" d="M26.582,33.003c0.027,2.579-0.579,4.972-1.585,7.25c-1.362,3.082-3.269,5.764-5.989,7.82
			c-3.485,2.628-8.368,2.78-12.037,0.572c1.228-1.291,2.726-2.045,4.372-2.536c2.428-0.723,4.934-1.245,7.281-2.167
			c3.865-1.517,5.93-4.727,7.242-8.498C26.14,34.643,26.345,33.818,26.582,33.003"/>
		<path fill="#FFFFFF" d="M26.003,31.125c-0.447,7.917-9.944,14.659-19.618,13.917c1.307-1.787,2.752-3.336,4.678-4.293
			c1.742-0.864,3.535-1.667,5.382-2.257C20.535,37.185,24.032,35.18,26.003,31.125"/>
		<path fill="#FFFFFF" d="M45.922,11.253c-1.387,1.719-3.273,2.28-5.182,2.864c-2.63,0.802-5.38,1.191-7.817,2.664
			c-3.074,1.858-4.698,4.666-5.813,7.901c-0.244,0.707-0.45,1.428-0.899,2.094c0.245-1.381,0.388-2.79,0.757-4.137
			c1.065-3.885,3.058-7.229,6.054-9.949c2.076-1.884,4.551-2.938,7.308-2.978C42.231,9.69,44.134,10.153,45.922,11.253"/>
		<path fill="#FFFFFF" d="M46.684,14.867c-1.881,2.628-4.179,4.357-6.937,5.458c-2.024,0.811-4.1,1.486-6.119,2.29
			c-2.892,1.155-5.012,3.17-6.4,5.953c-0.059,0.111-0.148,0.203-0.411,0.248c0.3-1.014,0.529-2.052,0.907-3.033
			c1.703-4.396,4.733-7.467,9.167-9.163C39.981,15.441,43.179,14.958,46.684,14.867"/>
		<path fill="#FFFFFF" d="M29.55,27.896c1.555-0.491,3.083-1.123,4.673-1.439c3.525-0.705,7.046-0.685,10.502,0.516
			c4.592,1.596,7.123,4.841,7.736,9.627c0.036,0.259-0.02,0.529-0.043,1.113c-1.211-0.632-2.367-1.061-3.302-1.773
			c-1.104-0.836-2.039-1.905-3.015-2.906c-1.798-1.837-3.625-3.616-6.051-4.651c-3.188-1.361-6.41-1.098-9.654-0.319
			c-0.161,0.041-0.314,0.097-0.473,0.122c-0.096,0.015-0.193-0.024-0.293-0.035C29.606,28.063,29.578,27.978,29.55,27.896"/>
		<path fill="#FFFFFF" d="M27.358,31.1c1.93,1.543,3.418,3.432,4.437,5.683c0.939,2.085,1.444,4.281,1.327,6.555
			c-0.214,4.099-1.522,7.879-3.812,11.489c-0.336-1.207-0.737-2.397-0.992-3.622c-0.643-3.112,0.045-6.144,0.693-9.166
			C29.833,38.195,29.578,34.532,27.358,31.1"/>
		<path fill="#FFFFFF" d="M49.59,39.896c-2.285-0.256-4.431-0.787-6.278-2.063c-1.875-1.303-3.704-2.7-5.41-4.219
			c-2.803-2.498-5.996-3.843-9.756-3.801c-0.095,0.003-0.19-0.03-0.302-0.048C35.754,26.859,43.818,29.943,49.59,39.896"/>
		<path fill="#FFFFFF" d="M19.902,3.699c0.845,1.672,0.607,3.253,0.254,4.803c-0.526,2.312-1.195,4.592-1.701,6.905
			c-0.759,3.464,0.222,6.584,2.195,9.41c0.873,1.25,1.943,2.36,2.878,3.639c-0.524-0.36-1.083-0.67-1.557-1.081
			c-3.445-2.97-5.962-6.561-7.037-11.028c-0.949-3.963-0.275-7.598,2.571-10.652C18.181,4.975,19.034,4.417,19.902,3.699"/>
		<path fill="#FFFFFF" d="M33.132,56.453c-0.948-2.198-0.54-4.057-0.111-5.895c0.502-2.149,1.125-4.271,1.577-6.427
			c0.446-2.136,0.093-4.221-0.732-6.234c-0.899-2.184-2.369-3.974-3.918-5.712c-0.076-0.085-0.138-0.188-0.204-0.282
			c0.068-0.071,0.138-0.142,0.21-0.212c1.022,0.904,2.137,1.733,3.053,2.737c2.232,2.451,3.982,5.231,4.867,8.454
			c0.957,3.483,0.958,6.933-1.309,9.982C35.628,54.121,34.391,55.154,33.132,56.453"/>
		<path fill="#FFFFFF" d="M23.483,4.891c1.161,2.569,1.63,5.04,1.382,7.589c-0.174,1.806-0.483,3.603-0.855,5.381
			c-0.801,3.838-0.628,7.499,1.654,10.859c0.029,0.038-0.017,0.124-0.047,0.282c-2.774-2.518-4.733-5.39-5.414-9.129
			C19.212,14.454,21.093,9.749,23.483,4.891"/>
		<path fill="#FFFFFF" d="M42.127,51.563c-1.759-1.6-2.398-3.598-2.527-5.762c-0.218-3.561-0.79-6.999-3.274-9.767
			c-1.194-1.331-2.545-2.522-3.909-3.862c0.452,0.235,0.852,0.428,1.235,0.65c0.402,0.231,0.792,0.485,1.18,0.743
			c2.873,1.909,5.441,4.139,7.386,7.021c1.263,1.874,2.109,3.901,1.989,6.207C44.11,48.599,43.424,50.178,42.127,51.563"/>
		<path fill="#FFFFFF" d="M15.638,54.279c0.444-2.298,1.923-3.719,3.678-5.025c1.64-1.221,3.237-2.538,4.662-3.999
			c1.891-1.93,2.585-4.483,3.114-7.061c0.134-0.646,0.194-1.309,0.408-1.967c0,1.382,0.184,2.793-0.042,4.138
			c-0.386,2.302-0.867,4.616-1.604,6.825c-0.905,2.71-2.365,5.128-5.049,6.521C19.208,54.533,17.607,54.713,15.638,54.279"/>
		<path fill="#FFFFFF" d="M20.613,27.698c-4.312-2.295-7.956-5.245-10.52-9.465c-1.858-3.062-1.755-6.941,0.677-9.814
			c1.473,1.084,2.149,2.616,2.431,4.342c0.307,1.894,0.548,3.796,0.811,5.694c0.361,2.584,1.78,4.613,3.497,6.443
			C18.459,25.911,19.573,26.769,20.613,27.698"/>
		<path fill="#FFFFFF" d="M37.379,5.567c-0.555,2.721-2.308,4.217-4.269,5.526c-2.375,1.585-4.596,3.368-5.703,6.072
			c-0.84,2.054-1.367,4.231-1.907,5.949c0-0.869-0.135-2.241,0.028-3.579c0.353-2.821,0.933-5.606,2.177-8.198
			c1.375-2.848,3.219-5.21,6.582-5.749C35.271,5.431,36.305,5.567,37.379,5.567"/>
		<path fill="#FFFFFF" d="M31.674,25.983c2.037-1.61,4.42-2.56,6.88-3.338c2.726-0.863,5.498-1.207,8.349-0.731
			c3.1,0.516,4.985,2.414,6.154,5.286c-1.738,0.656-3.415,0.5-5.05-0.141c-1.448-0.566-2.835-1.297-4.285-1.857
			c-3.659-1.423-7.283-1.021-10.866,0.346C32.466,25.692,32.07,25.834,31.674,25.983"/>
		<path fill="#FFFFFF" d="M0,32.739c1.93-0.661,3.781-0.354,5.595,0.402c1.461,0.61,2.876,1.345,4.371,1.865
			c3.313,1.152,6.592,0.729,9.821-0.444c0.49-0.184,0.991-0.35,1.491-0.52c0.024-0.006,0.058,0.027,0.287,0.151
			c-1.504,0.747-2.863,1.524-4.296,2.114c-3.181,1.317-6.466,2.187-9.957,1.946C4.017,38.027,1.065,36.208,0,32.739"/>
		<path fill="#FFFFFF" d="M42.174,38.862c1.441,1.066,2.895,2.065,4.668,2.484c0.702,0.165,1.435,0.212,2.137,0.388
			c1.813,0.458,2.716,1.86,3.498,3.396c-2.686,1.317-4.753,0.88-6.772-1.504C44.433,42.12,43.346,40.453,42.174,38.862"/>
		<path fill="#FFFFFF" d="M26.337,60.015c-2.719-1.664-2.958-4.333-1.933-6.877c0.663-1.643,1.421-3.247,2.322-4.832
			c-0.074,0.58-0.17,1.161-0.22,1.744c-0.13,1.553,0.166,3.026,0.774,4.455C28.131,56.507,27.661,58.312,26.337,60.015"/>
		<path fill="#FFFFFF" d="M0.489,14.825c3.345-1.609,5.586-0.146,7.225,2.085c1.031,1.409,2.076,2.81,3.269,4.423
			c-0.312-0.116-0.417-0.126-0.473-0.182c-1.637-1.693-3.682-2.478-5.97-2.828c-1.389-0.212-2.532-0.895-3.264-2.162
			C1.029,15.739,0.777,15.314,0.489,14.825"/>
		<path fill="#FFFFFF" d="M42.183,20.794c2.414-0.913,4.159-2.444,5.729-4.375c1.146-1.413,2.95-1.495,4.699-1.265
			c-0.188,2.658-1.518,4.203-4.223,4.923c-0.447,0.118-0.905,0.206-1.364,0.254C45.414,20.497,43.798,20.641,42.183,20.794"/>
		<path fill="#FFFFFF" d="M26.633,0.016c1.81,0.712,2.862,3.066,2.434,5.271c-0.164,0.869-0.494,1.715-0.843,2.53
			c-0.546,1.267-1.167,2.5-1.941,3.701c0.074-0.524,0.175-1.045,0.206-1.574c0.088-1.545-0.128-3.026-0.765-4.469
			C24.849,3.492,25.331,1.668,26.633,0.016"/>
		<path fill="#FFFFFF" d="M0.346,44.806c0.609-3.881,2.344-4.554,5.386-5.116c1.591-0.292,3.226-0.34,4.884-0.34
			c-0.713,0.333-1.503,0.561-2.12,1.019c-0.977,0.726-1.938,1.517-2.716,2.439C4.332,44.526,2.6,45.238,0.346,44.806"/>
	</g>
</g>
</svg>
