<?xml version="1.0" encoding="utf-8"?>
<!-- Generator: Adobe Illustrator 21.0.0, SVG Export Plug-In . SVG Version: 6.00 Build 0)  -->
<svg version="1.1" id="Layer_1" xmlns="http://www.w3.org/2000/svg" xmlns:xlink="http://www.w3.org/1999/xlink" x="0px" y="0px"
	 viewBox="0 0 10.9 10.7" style="enable-background:new 0 0 10.9 10.7;" xml:space="preserve">
<style type="text/css">
	.st0{fill:#FFFFFF;}
</style>
<path class="st0" d="M7.1,2.3C6,2.8,4.8,3.5,3.6,4.1C3.1,3.6,2.5,3.4,1.8,3.5C1.3,3.5,0.8,3.7,0.5,4.1C-0.2,5-0.1,6.2,0.6,6.9
	c0.7,0.7,2,0.8,2.9-0.1C4.6,7.5,5.8,8.1,7,8.7C6.8,9.6,7.2,10.4,8,10.7c0.7,0.2,1.6-0.1,2-0.7c0.4-0.7,0.2-1.7-0.4-2.1
	C9,7.3,8.1,7.3,7.3,8.1C6.3,7.4,5.2,6.8,4.1,6.1C4,6.1,4,5.9,4,5.8C4,5.5,4,5.3,4,5c1-0.5,2.1-1,3.2-1.6C7.5,3.3,7.7,3.3,8,3.5
	c0.6,0.4,1.3,0.4,2,0c0.6-0.3,0.9-0.9,0.9-1.6c0.1-0.9-0.6-1.7-1.4-1.9C8.4-0.2,7.4,0.4,7.2,1.5C7.1,1.7,7.1,1.9,7.1,2.3z"/>
</svg>
